# xmcd
#
# Track frame offsets: 
#        150
#        15465
#        32878
#        50731
#        69493
#        84928
#        98040
#        116521
#        136013
#        153945
#        171303
#        184543
#        198925
#        212238
#        225589
#        246722
#        262478
#        279780
#        297058
#
# Disc length: 4163 seconds
#
# Revision: 0
# Processed by: cddbd v1.5.2PL0 Copyright (c) Steve Scherf et al.
# Submitted via: ExactAudioCopyFreeDBPlugin 1.0
#
DISCID=0c104113
DTITLE=Roy Lønhøiden - Tilbake i Tid - De Beste Sangene
DYEAR=2010
DGENRE=Country
TTITLE0=Vann og Ved
TTITLE1=En Fin Kveld å Leve
TTITLE2=Nå og Hver Dag
TTITLE3=Hvor Går Veien Nå
TTITLE4=Rekendes På Ei Fjøl
TTITLE5=Farvel (Farewell)
TTITLE6=Gjennom Livet
TTITLE7=Til Jeg Kan Reise Meg Igjen ('Till I Gain Control Again)
TTITLE8=Strenger av Stål
TTITLE9=Toget Hass Far
TTITLE10=Tårer og Trøst
TTITLE11=Dau Fisk
TTITLE12=Billigste Bula i By'n
TTITLE13=Det er Mørkest Like Før Det Gryr (Darkest Hour is Just Before
TTITLE13=Dawn)
TTITLE14=Det Snør på Skogen Nå (Snowin' on Raton)
TTITLE15=Våre Roser
TTITLE16=La Meg Dra Dit Igjen
TTITLE17=Prøv å Se Meg Som Elva
TTITLE18=Tilbake i Tid
EXTD=
EXTT0=
EXTT1=
EXTT2=
EXTT3=
EXTT4=
EXTT5=
EXTT6=
EXTT7=
EXTT8=
EXTT9=
EXTT10=
EXTT11=
EXTT12=
EXTT13=
EXTT14=
EXTT15=
EXTT16=
EXTT17=
EXTT18=
PLAYORDER=
